<svg width="760" height="726" viewBox="0 0 760 726" fill="none" xmlns="http://www.w3.org/2000/svg">
<path d="M380 0C404.58 0.000169328 426.609 13.6377 437.491 35.5908L520.17 202.402L705.053 229.152C729.387 232.673 749.222 249.331 756.817 272.626C764.411 295.916 758.19 321.001 740.582 338.093L606.813 467.926L638.392 651.257C642.548 675.391 632.775 699.328 612.889 713.726C601.649 721.864 588.496 725.999 575.261 726C565.096 726 554.885 723.563 545.446 718.627L406.253 646.404C397.024 655.332 383.847 656.098 380.696 656.149H379.292C376.084 656.095 362.678 655.304 353.45 646.112L214.608 718.598C192.866 729.981 166.989 728.113 147.099 713.71C127.219 699.315 117.453 675.382 121.61 651.254L153.189 467.928L19.418 338.094C1.81023 321.002 -4.41059 295.917 3.18269 272.628C10.7784 249.332 30.6146 232.673 54.9493 229.152L239.829 202.402L322.508 35.5908C333.391 13.6372 355.421 7.16304e-05 380 0ZM390.071 58.9229C385.953 50.6153 374.046 50.6156 369.929 58.9229L284.695 230.888C278.589 243.208 266.787 251.745 253.134 253.722L62.5489 281.298C53.3388 282.631 49.6647 293.887 56.3223 300.351L194.235 434.205C204.115 443.797 208.625 457.617 206.292 471.161L173.735 660.169C172.164 669.29 181.791 676.255 190.046 671.934L344.375 591.361C344.76 591.161 345.15 590.977 345.544 590.812L326.342 401.706C326.422 401.776 347.284 419.944 380 419.944C412.736 419.944 433.602 401.754 433.657 401.706L414.414 591.231C414.488 591.268 414.562 591.306 414.635 591.344L569.97 671.941C578.209 676.255 587.837 669.29 586.267 660.168L553.71 471.161C551.377 457.617 555.885 443.797 565.767 434.203L703.676 300.352C710.335 293.887 706.663 282.63 697.453 281.298L506.864 253.722C493.212 251.745 481.41 243.207 475.305 230.888L390.071 58.9229ZM380 455.437C373.179 455.437 367.598 460.997 367.598 467.787V506.327C367.598 513.12 373.179 518.677 380 518.678C386.822 518.678 392.403 513.12 392.403 506.327V467.787C392.403 460.997 386.822 455.437 380 455.437ZM379.999 235.126C427.2 235.126 465.461 273.226 465.461 320.223C465.461 367.219 427.199 405.318 379.999 405.318C332.801 405.318 294.54 367.219 294.54 320.223C294.54 273.226 332.801 235.126 379.999 235.126Z" fill="url(#paint0_radial_288_11000)"/>
<defs>
<radialGradient id="paint0_radial_288_11000" cx="0" cy="0" r="1" gradientUnits="userSpaceOnUse" gradientTransform="translate(763.697 512.737) rotate(90) scale(665.04 696.185)">
<stop stop-color="#FF8D4E"/>
<stop offset="0.448641" stop-color="#FB498C"/>
<stop offset="1" stop-color="#6F47FB"/>
</radialGradient>
</defs>
</svg>

